<svg aria-hidden="true" class="nav-sidebar__outline-item-link-icon" fill="none" focusable="false" height="12" viewBox="0 0 18 12" width="18" xmlns="http://www.w3.org/2000/svg"><path clip-rule="evenodd" d="M0.666992 1.00002C0.666992 0.539783 1.04009 0.166687 1.50033 0.166687H14.0003C14.4606 0.166687 14.8337 0.539783 14.8337 1.00002C14.8337 1.46026 14.4606 1.83335 14.0003 1.83335H1.50033C1.04009 1.83335 0.666992 1.46026 0.666992 1.00002ZM0.666992 6.00002C0.666992 5.53978 1.04009 5.16669 1.50033 5.16669H16.5003C16.9606 5.16669 17.3337 5.53978 17.3337 6.00002C17.3337 6.46026 16.9606 6.83335 16.5003 6.83335H1.50033C1.04009 6.83335 0.666992 6.46026 0.666992 6.00002ZM0.666992 11C0.666992 10.5398 1.04009 10.1667 1.50033 10.1667H10.667C11.1272 10.1667 11.5003 10.5398 11.5003 11C11.5003 11.4603 11.1272 11.8334 10.667 11.8334H1.50033C1.04009 11.8334 0.666992 11.4603 0.666992 11Z" fill="currentColor" fill-rule="evenodd"></path></svg>