<svg class="btn-skip-to-lesson__icon" width="20" height="20" viewBox="0 0 20 20" fill="none" focusable="false" xmlns="http://www.w3.org/2000/svg">
                  <path fill-rule="evenodd" clip-rule="evenodd"
                    d="M10.0002 3.33334C10.4604 3.33334 10.8335 3.70644 10.8335 4.16668V15.8333C10.8335 16.2936 10.4604 16.6667 10.0002 16.6667C9.53992 16.6667 9.16683 16.2936 9.16683 15.8333V4.16668C9.16683 3.70644 9.53992 3.33334 10.0002 3.33334Z"
                    fill="currentColor"></path>
                  <path fill-rule="evenodd" clip-rule="evenodd"
                    d="M3.57757 9.41075C3.90301 9.08532 4.43065 9.08532 4.75609 9.41075L10.0002 14.6548L15.2442 9.41075C15.5697 9.08532 16.0973 9.08532 16.4228 9.41075C16.7482 9.73619 16.7482 10.2638 16.4228 10.5893L10.5894 16.4226C10.264 16.748 9.73634 16.748 9.41091 16.4226L3.57757 10.5893C3.25214 10.2638 3.25214 9.73619 3.57757 9.41075Z"
                    fill="currentColor"></path>
            </svg>